<svg id="visual" viewBox="0 0 960 300" width="960" height="300" xmlns="http://www.w3.org/2000/svg" xmlns:xlink="http://www.w3.org/1999/xlink" version="1.1"><rect x="0" y="0" width="960" height="300" fill="#000000"></rect><path d="M0 151L22.8 145.5C45.7 140 91.3 129 137 131.5C182.7 134 228.3 150 274 150C319.7 150 365.3 134 411.2 133.8C457 133.7 503 149.3 548.8 147.8C594.7 146.3 640.3 127.7 686 120.2C731.7 112.7 777.3 116.3 823 125.7C868.7 135 914.3 150 937.2 157.5L960 165L960 0L937.2 0C914.3 0 868.7 0 823 0C777.3 0 731.7 0 686 0C640.3 0 594.7 0 548.8 0C503 0 457 0 411.2 0C365.3 0 319.7 0 274 0C228.3 0 182.7 0 137 0C91.3 0 45.7 0 22.8 0L0 0Z" fill="#000000"></path><path d="M0 109L22.8 106.3C45.7 103.7 91.3 98.3 137 94.8C182.7 91.3 228.3 89.7 274 91C319.7 92.3 365.3 96.7 411.2 104.8C457 113 503 125 548.8 124.3C594.7 123.7 640.3 110.3 686 102.3C731.7 94.3 777.3 91.7 823 96C868.7 100.3 914.3 111.7 937.2 117.3L960 123L960 0L937.2 0C914.3 0 868.7 0 823 0C777.3 0 731.7 0 686 0C640.3 0 594.7 0 548.8 0C503 0 457 0 411.2 0C365.3 0 319.7 0 274 0C228.3 0 182.7 0 137 0C91.3 0 45.7 0 22.8 0L0 0Z" fill="#3b3b3b"></path><path d="M0 112L22.8 106.2C45.7 100.3 91.3 88.7 137 83.5C182.7 78.3 228.3 79.7 274 77.7C319.7 75.7 365.3 70.3 411.2 72.7C457 75 503 85 548.8 92.7C594.7 100.3 640.3 105.7 686 104C731.7 102.3 777.3 93.7 823 93C868.7 92.3 914.3 99.7 937.2 103.3L960 107L960 0L937.2 0C914.3 0 868.7 0 823 0C777.3 0 731.7 0 686 0C640.3 0 594.7 0 548.8 0C503 0 457 0 411.2 0C365.3 0 319.7 0 274 0C228.3 0 182.7 0 137 0C91.3 0 45.7 0 22.8 0L0 0Z" fill="#777777"></path><path d="M0 50L22.8 53.2C45.7 56.3 91.3 62.7 137 67.3C182.7 72 228.3 75 274 76.2C319.7 77.3 365.3 76.7 411.2 70.5C457 64.3 503 52.7 548.8 50C594.7 47.3 640.3 53.7 686 56.7C731.7 59.7 777.3 59.3 823 61.7C868.7 64 914.3 69 937.2 71.5L960 74L960 0L937.2 0C914.3 0 868.7 0 823 0C777.3 0 731.7 0 686 0C640.3 0 594.7 0 548.8 0C503 0 457 0 411.2 0C365.3 0 319.7 0 274 0C228.3 0 182.7 0 137 0C91.3 0 45.7 0 22.8 0L0 0Z" fill="#b9b9b9"></path><path d="M0 17L22.8 21C45.7 25 91.3 33 137 36.8C182.7 40.7 228.3 40.3 274 40.3C319.7 40.3 365.3 40.7 411.2 38.7C457 36.7 503 32.3 548.8 31.7C594.7 31 640.3 34 686 35.3C731.7 36.7 777.3 36.3 823 33.3C868.7 30.3 914.3 24.7 937.2 21.8L960 19L960 0L937.2 0C914.3 0 868.7 0 823 0C777.3 0 731.7 0 686 0C640.3 0 594.7 0 548.8 0C503 0 457 0 411.2 0C365.3 0 319.7 0 274 0C228.3 0 182.7 0 137 0C91.3 0 45.7 0 22.8 0L0 0Z" fill="#ffffff"></path></svg>